<svg xmlns="http://www.w3.org/2000/svg" viewBox="0 0 1280 640" width="1280" height="640" role="img" aria-label="PascalAI — Selected Engineering Work. Generation 52 to 377 tokens per second on a 20B ternary MoE on a 16GB consumer card, across a 103 case CPU-reference matrix.">
  <title>PascalAI — Selected Engineering Work</title>
  <defs>
    <linearGradient id="field" x1="0" y1="0" x2="1" y2="1">
      <stop offset="0%" stop-color="#08111F"/>
      <stop offset="58%" stop-color="#0D1B2E"/>
      <stop offset="100%" stop-color="#08111F"/>
    </linearGradient>
    <linearGradient id="num" x1="0" y1="0" x2="1" y2="0">
      <stop offset="0%" stop-color="#D9E5F5"/>
      <stop offset="62%" stop-color="#D9E5F5"/>
      <stop offset="100%" stop-color="#47D7FF"/>
    </linearGradient>
  </defs>

  <rect width="1280" height="640" fill="url(#field)"/>

  <g stroke="#1A2C45" stroke-width="1" opacity="0.5">
    <path d="M0 128h1280M0 256h1280M0 384h1280M0 512h1280"/>
    <path d="M160 0v640M320 0v640M480 0v640M640 0v640M800 0v640M960 0v640M1120 0v640"/>
  </g>

  <!-- identity -->
  <text x="80" y="88" font-family="'Cascadia Mono',Consolas,'SF Mono',Menlo,monospace"
        font-size="20" letter-spacing="5.5" fill="#47D7FF">INGENIOUS DIGITAL</text>

  <text x="76" y="182" font-family="'Segoe UI','Segoe UI Semibold',Inter,'Helvetica Neue',Arial,sans-serif"
        font-size="100" font-weight="700" letter-spacing="-2.5" fill="#D9E5F5">Pascal<tspan fill="#47D7FF">AI</tspan></text>

  <text x="80" y="232" font-family="'Segoe UI',Inter,'Helvetica Neue',Arial,sans-serif"
        font-size="33" font-weight="600" fill="#D9E5F5" opacity="0.82">Selected Engineering Work</text>

  <!-- 103 CPU-reference cases, drawn rather than described -->
  <g fill="#47D7FF">
    <g opacity="0.92">
      <circle cx="838" cy="96" r="4.6"/><circle cx="863" cy="96" r="4.6"/><circle cx="888" cy="96" r="4.6"/><circle cx="913" cy="96" r="4.6"/><circle cx="938" cy="96" r="4.6"/><circle cx="963" cy="96" r="4.6"/><circle cx="988" cy="96" r="4.6"/><circle cx="1013" cy="96" r="4.6"/><circle cx="1038" cy="96" r="4.6"/><circle cx="1063" cy="96" r="4.6"/><circle cx="1088" cy="96" r="4.6"/><circle cx="1113" cy="96" r="4.6"/><circle cx="1138" cy="96" r="4.6"/>
      <circle cx="838" cy="121" r="4.6"/><circle cx="863" cy="121" r="4.6"/><circle cx="888" cy="121" r="4.6"/><circle cx="913" cy="121" r="4.6"/><circle cx="938" cy="121" r="4.6"/><circle cx="963" cy="121" r="4.6"/><circle cx="988" cy="121" r="4.6"/><circle cx="1013" cy="121" r="4.6"/><circle cx="1038" cy="121" r="4.6"/><circle cx="1063" cy="121" r="4.6"/><circle cx="1088" cy="121" r="4.6"/><circle cx="1113" cy="121" r="4.6"/><circle cx="1138" cy="121" r="4.6"/>
      <circle cx="838" cy="146" r="4.6"/><circle cx="863" cy="146" r="4.6"/><circle cx="888" cy="146" r="4.6"/><circle cx="913" cy="146" r="4.6"/><circle cx="938" cy="146" r="4.6"/><circle cx="963" cy="146" r="4.6"/><circle cx="988" cy="146" r="4.6"/><circle cx="1013" cy="146" r="4.6"/><circle cx="1038" cy="146" r="4.6"/><circle cx="1063" cy="146" r="4.6"/><circle cx="1088" cy="146" r="4.6"/><circle cx="1113" cy="146" r="4.6"/><circle cx="1138" cy="146" r="4.6"/>
      <circle cx="838" cy="171" r="4.6"/><circle cx="863" cy="171" r="4.6"/><circle cx="888" cy="171" r="4.6"/><circle cx="913" cy="171" r="4.6"/><circle cx="938" cy="171" r="4.6"/><circle cx="963" cy="171" r="4.6"/><circle cx="988" cy="171" r="4.6"/><circle cx="1013" cy="171" r="4.6"/><circle cx="1038" cy="171" r="4.6"/><circle cx="1063" cy="171" r="4.6"/><circle cx="1088" cy="171" r="4.6"/><circle cx="1113" cy="171" r="4.6"/><circle cx="1138" cy="171" r="4.6"/>
      <circle cx="838" cy="196" r="4.6"/><circle cx="863" cy="196" r="4.6"/><circle cx="888" cy="196" r="4.6"/><circle cx="913" cy="196" r="4.6"/><circle cx="938" cy="196" r="4.6"/><circle cx="963" cy="196" r="4.6"/><circle cx="988" cy="196" r="4.6"/><circle cx="1013" cy="196" r="4.6"/><circle cx="1038" cy="196" r="4.6"/><circle cx="1063" cy="196" r="4.6"/><circle cx="1088" cy="196" r="4.6"/><circle cx="1113" cy="196" r="4.6"/><circle cx="1138" cy="196" r="4.6"/>
      <circle cx="838" cy="221" r="4.6"/><circle cx="863" cy="221" r="4.6"/><circle cx="888" cy="221" r="4.6"/><circle cx="913" cy="221" r="4.6"/><circle cx="938" cy="221" r="4.6"/><circle cx="963" cy="221" r="4.6"/><circle cx="988" cy="221" r="4.6"/><circle cx="1013" cy="221" r="4.6"/><circle cx="1038" cy="221" r="4.6"/><circle cx="1063" cy="221" r="4.6"/><circle cx="1088" cy="221" r="4.6"/><circle cx="1113" cy="221" r="4.6"/><circle cx="1138" cy="221" r="4.6"/>
      <circle cx="838" cy="246" r="4.6"/><circle cx="863" cy="246" r="4.6"/><circle cx="888" cy="246" r="4.6"/><circle cx="913" cy="246" r="4.6"/><circle cx="938" cy="246" r="4.6"/><circle cx="963" cy="246" r="4.6"/><circle cx="988" cy="246" r="4.6"/><circle cx="1013" cy="246" r="4.6"/><circle cx="1038" cy="246" r="4.6"/><circle cx="1063" cy="246" r="4.6"/><circle cx="1088" cy="246" r="4.6"/><circle cx="1113" cy="246" r="4.6"/><circle cx="1138" cy="246" r="4.6"/>
      <circle cx="838" cy="271" r="4.6"/><circle cx="863" cy="271" r="4.6"/><circle cx="888" cy="271" r="4.6"/><circle cx="913" cy="271" r="4.6"/><circle cx="938" cy="271" r="4.6"/><circle cx="963" cy="271" r="4.6"/><circle cx="988" cy="271" r="4.6"/><circle cx="1013" cy="271" r="4.6"/><circle cx="1038" cy="271" r="4.6"/><circle cx="1063" cy="271" r="4.6"/><circle cx="1088" cy="271" r="4.6"/>
    </g>
    <circle cx="1113" cy="271" r="4.6"/>
  </g>
  <text x="838" y="312" font-family="'Cascadia Mono',Consolas,'SF Mono',Menlo,monospace"
        font-size="16" letter-spacing="1.6" fill="#6F829C">103 CPU-REFERENCE CASES</text>

  <line x1="80" y1="374" x2="1200" y2="374" stroke="#1A2C45" stroke-width="1.5"/>

  <!-- the result -->
  <text x="76" y="474" font-family="'Segoe UI','Segoe UI Semibold',Inter,'Helvetica Neue',Arial,sans-serif"
        font-size="78" font-weight="700" letter-spacing="-1.5" fill="url(#num)">52 → 377 tok/s</text>

  <text x="80" y="516" font-family="'Segoe UI',Inter,'Helvetica Neue',Arial,sans-serif"
        font-size="23" fill="#6F829C">Generation on a 20B ternary MoE, running in 7.3 GB on a 16 GB consumer card</text>

  <text x="80" y="562" font-family="'Cascadia Mono',Consolas,'SF Mono',Menlo,monospace"
        font-size="16" letter-spacing="3.4" fill="#47D7FF" opacity="0.85">GPU PERFORMANCE · APPLIED ML · NATIVE TOOLS · EMBEDDED AI</text>

  <text x="80" y="606" font-family="'Cascadia Mono',Consolas,'SF Mono',Menlo,monospace"
        font-size="18" fill="#6F829C">github.com/PascalAI2024/portfolio</text>
  <text x="1200" y="606" text-anchor="end" font-family="'Cascadia Mono',Consolas,'SF Mono',Menlo,monospace"
        font-size="18" fill="#6F829C">ingeniousdigital.com</text>

  <rect x="0" y="0" width="1280" height="6" fill="#47D7FF"/>
</svg>
